<svg width="221" height="58" viewBox="0 0 221 58" fill="none" xmlns="http://www.w3.org/2000/svg">
<g clip-path="url(#clip0_7_56)">
<path d="M29.2287 7.70816C28.2494 10.4645 27.2722 13.2209 26.2929 15.9751C24.2359 17.3408 22.1853 18.7148 20.1179 20.0617C14.6418 23.6812 9.88756 29.8215 6.34494 34.8087C3.87368 38.2886 1.36476 50.0437 9.52765 49.5162C12.6894 49.241 15.847 48.922 19.0067 48.6092C19.3583 51.5407 19.8082 54.4013 20.708 57.2265C17.7387 57.2556 14.7694 57.2911 11.8001 57.2807C7.84318 56.9909 4.45749 53.5944 2.42984 50.4378C-0.939102 45.192 -0.857494 39.3165 3.01366 34.8275C9.3456 27.4863 17.2051 20.0095 24.3322 12.6496C25.9643 11.0024 27.5965 9.3553 29.2308 7.70816H29.2287Z" fill="#1E1E1E"/>
<path d="M43.3358 0.0124971C43.3588 3.20877 43.3818 6.40505 43.4069 9.60133C40.8478 9.68264 38.772 9.9516 36.2777 10.5333C30.561 12.4286 28.9916 24.7633 28.1274 29.2752C27.3197 33.491 25.7628 47.8774 33.9195 47.3645C37.1377 47.2331 40.3497 47.1623 43.5701 47.1518C43.5618 50.4649 43.5429 53.7779 43.5157 57.0909C40.559 57.0909 37.6023 57.0993 34.6456 57.1097C22.5341 57.2994 22.3792 37.6402 24.2792 30.3719C26.0077 23.7646 28.5333 16.9905 31.2473 10.5104C32.5321 7.44337 34.0199 2.71672 37.2738 1.13422C39.0608 0.346094 41.3834 -0.083412 43.3358 0.0124971Z" fill="#1E1E1E"/>
<path d="M52.2793 57.1181C50.6764 57.1097 49.875 57.1056 48.27 57.1014C49.2911 41.7747 48.3704 26.6544 47.3451 11.3611C47.2949 10.0767 47.2049 -0.469108 49.8227 0.867365C52.6957 2.33519 53.9219 9.08844 55.0016 12.6454C58.8079 24.313 64.4744 35.1987 66.0103 47.4875C66.1715 48.8761 66.5272 49.7685 67.1759 49.8248C67.8957 49.8874 68.603 48.7969 68.7055 46.9913C68.9608 36.3913 64.918 27.5843 61.1348 17.8996C60.3668 15.8042 58.3099 12.1742 59.2222 10.0976C59.4503 10.2873 59.7119 10.475 59.9086 10.6647C62.7983 13.4544 65.1922 17.6702 67.7848 21.1647C72.1916 26.9421 77.9921 32.0837 81.9176 38.1552C84.709 42.4732 86.653 49.0471 82.9681 53.4693C81.836 54.5473 81.1832 55.0206 79.7435 55.7587C86.2784 43.5511 71.5534 29.7172 65.619 20.535C64.8574 19.3486 64.1522 18.3708 63.7379 18.081C63.2796 17.7578 63.4324 18.5146 64.194 20.0867C68.6427 29.2752 73.3383 37.3587 72.9575 47.8628C72.3611 51.8785 70.4569 57.9583 65.4056 58C61.3922 58.0355 61.8086 50.9695 61.6307 48.5092C60.3417 35.991 55.7131 24.5632 52.4006 12.5162C52.0114 11.1171 51.5532 10.0329 51.1263 9.86197C50.6011 9.6493 50.3876 10.7168 50.6178 12.6162C52.4362 27.5781 54.0286 42.0437 52.273 57.116L52.2793 57.1181Z" fill="#1E1E1E"/>
</g>
<path d="M94.8849 18V7.81818H98.9616C99.7107 7.81818 100.335 7.92921 100.836 8.15128C101.336 8.37334 101.713 8.68158 101.964 9.07599C102.216 9.46709 102.342 9.91785 102.342 10.4283C102.342 10.826 102.263 11.1757 102.104 11.4773C101.945 11.7756 101.726 12.0208 101.447 12.2131C101.172 12.402 100.857 12.5362 100.503 12.6158V12.7152C100.891 12.7318 101.254 12.8411 101.592 13.0433C101.933 13.2455 102.21 13.5289 102.422 13.8935C102.634 14.2547 102.74 14.6856 102.74 15.1861C102.74 15.7263 102.606 16.2086 102.337 16.6328C102.072 17.0537 101.679 17.3868 101.159 17.6321C100.639 17.8774 99.9974 18 99.2351 18H94.8849ZM97.0376 16.2401H98.7926C99.3925 16.2401 99.83 16.1257 100.105 15.897C100.38 15.665 100.518 15.3568 100.518 14.9723C100.518 14.6906 100.45 14.442 100.314 14.2266C100.178 14.0111 99.9841 13.8421 99.7322 13.7195C99.4837 13.5968 99.187 13.5355 98.8423 13.5355H97.0376V16.2401ZM97.0376 12.0788H98.6335C98.9285 12.0788 99.1903 12.0275 99.419 11.9247C99.651 11.8187 99.8333 11.6695 99.9659 11.4773C100.102 11.285 100.17 11.0547 100.17 10.7862C100.17 10.4183 100.039 10.1217 99.777 9.89631C99.5185 9.67093 99.1506 9.55824 98.6733 9.55824H97.0376V12.0788ZM104.141 18V7.81818H106.294V12.0192H110.664V7.81818H112.811V18H110.664V13.794H106.294V18H104.141ZM120.875 7.81818H123.028V14.4304C123.028 15.1728 122.851 15.8224 122.496 16.3793C122.145 16.9361 121.652 17.3703 121.019 17.6818C120.386 17.9901 119.649 18.1442 118.807 18.1442C117.962 18.1442 117.223 17.9901 116.59 17.6818C115.957 17.3703 115.464 16.9361 115.113 16.3793C114.762 15.8224 114.586 15.1728 114.586 14.4304V7.81818H116.739V14.2464C116.739 14.6342 116.823 14.9789 116.992 15.2805C117.165 15.5821 117.407 15.8191 117.718 15.9915C118.03 16.1638 118.393 16.25 118.807 16.25C119.225 16.25 119.588 16.1638 119.896 15.9915C120.207 15.8191 120.448 15.5821 120.617 15.2805C120.789 14.9789 120.875 14.6342 120.875 14.2464V7.81818ZM124.411 9.59304V7.81818H132.773V9.59304H129.656V18H127.528V9.59304H124.411ZM134.661 18H132.355L135.869 7.81818H138.644L142.154 18H139.847L137.296 10.1449H137.217L134.661 18ZM134.517 13.9979H139.966V15.6783H134.517V13.9979ZM151.895 7.81818V18H150.036L145.606 11.5916H145.532V18H143.379V7.81818H145.268L149.663 14.2216H149.753V7.81818H151.895ZM103.869 28.3828H101.691C101.651 28.1011 101.57 27.8509 101.447 27.6321C101.325 27.41 101.167 27.2211 100.975 27.0653C100.783 26.9096 100.561 26.7902 100.309 26.7074C100.06 26.6245 99.7902 26.5831 99.4986 26.5831C98.9716 26.5831 98.5125 26.714 98.1214 26.9759C97.7304 27.2344 97.4271 27.6122 97.2116 28.1094C96.9962 28.6032 96.8885 29.2031 96.8885 29.9091C96.8885 30.6349 96.9962 31.2448 97.2116 31.7386C97.4304 32.2325 97.7353 32.6054 98.1264 32.8572C98.5175 33.1091 98.9699 33.2351 99.4837 33.2351C99.772 33.2351 100.039 33.197 100.284 33.1207C100.533 33.0445 100.753 32.9335 100.945 32.7876C101.138 32.6385 101.297 32.4579 101.423 32.2457C101.552 32.0336 101.641 31.7917 101.691 31.5199L103.869 31.5298C103.812 31.9972 103.671 32.4479 103.446 32.8821C103.224 33.313 102.924 33.6991 102.546 34.0405C102.172 34.3786 101.724 34.647 101.204 34.8459C100.687 35.0414 100.102 35.1392 99.4489 35.1392C98.5407 35.1392 97.7287 34.9337 97.0128 34.5227C96.3002 34.1117 95.7367 33.5168 95.3224 32.7379C94.9115 31.959 94.706 31.0161 94.706 29.9091C94.706 28.7988 94.9148 27.8542 95.3324 27.0753C95.75 26.2964 96.3168 25.7031 97.0327 25.2955C97.7486 24.8845 98.554 24.679 99.4489 24.679C100.039 24.679 100.586 24.7618 101.089 24.9276C101.597 25.0933 102.046 25.3352 102.437 25.6534C102.828 25.9683 103.146 26.3544 103.391 26.8118C103.64 27.2692 103.799 27.7929 103.869 28.3828ZM105.412 35V24.8182H107.565V33.2251H111.93V35H105.412ZM115.508 24.8182V35H113.356V24.8182H115.508ZM117.279 24.8182H119.934L122.738 31.6591H122.858L125.662 24.8182H128.316V35H126.228V28.3729H126.144L123.509 34.9503H122.087L119.452 28.348H119.368V35H117.279V24.8182ZM131.845 35H129.538L133.053 24.8182H135.827L139.337 35H137.03L134.48 27.1449H134.4L131.845 35ZM131.701 30.9979H137.15V32.6783H131.701V30.9979ZM138.931 26.593V24.8182H147.293V26.593H144.176V35H142.048V26.593H138.931ZM148.67 35V24.8182H155.531V26.593H150.823V29.0192H155.178V30.794H150.823V33.2251H155.551V35H148.67ZM169.466 28.3828H167.289C167.249 28.1011 167.168 27.8509 167.045 27.6321C166.922 27.41 166.765 27.2211 166.573 27.0653C166.381 26.9096 166.158 26.7902 165.907 26.7074C165.658 26.6245 165.388 26.5831 165.096 26.5831C164.569 26.5831 164.11 26.714 163.719 26.9759C163.328 27.2344 163.025 27.6122 162.809 28.1094C162.594 28.6032 162.486 29.2031 162.486 29.9091C162.486 30.6349 162.594 31.2448 162.809 31.7386C163.028 32.2325 163.333 32.6054 163.724 32.8572C164.115 33.1091 164.568 33.2351 165.081 33.2351C165.37 33.2351 165.636 33.197 165.882 33.1207C166.13 33.0445 166.351 32.9335 166.543 32.7876C166.735 32.6385 166.894 32.4579 167.02 32.2457C167.15 32.0336 167.239 31.7917 167.289 31.5199L169.466 31.5298C169.41 31.9972 169.269 32.4479 169.044 32.8821C168.822 33.313 168.522 33.6991 168.144 34.0405C167.769 34.3786 167.322 34.647 166.801 34.8459C166.284 35.0414 165.699 35.1392 165.047 35.1392C164.138 35.1392 163.326 34.9337 162.61 34.5227C161.898 34.1117 161.334 33.5168 160.92 32.7379C160.509 31.959 160.304 31.0161 160.304 29.9091C160.304 28.7988 160.512 27.8542 160.93 27.0753C161.348 26.2964 161.914 25.7031 162.63 25.2955C163.346 24.8845 164.152 24.679 165.047 24.679C165.636 24.679 166.183 24.7618 166.687 24.9276C167.194 25.0933 167.643 25.3352 168.034 25.6534C168.426 25.9683 168.744 26.3544 168.989 26.8118C169.238 27.2692 169.397 27.7929 169.466 28.3828ZM171.01 35V24.8182H173.163V29.0192H177.533V24.8182H179.68V35H177.533V30.794H173.163V35H171.01ZM183.21 35H180.903L184.418 24.8182H187.192L190.702 35H188.396L185.845 27.1449H185.766L183.21 35ZM183.066 30.9979H188.515V32.6783H183.066V30.9979ZM200.444 24.8182V35H198.585L194.155 28.5916H194.081V35H191.928V24.8182H193.817L198.212 31.2216H198.301V24.8182H200.444ZM208.974 28.1094C208.905 27.8674 208.807 27.6536 208.681 27.468C208.555 27.2791 208.401 27.12 208.219 26.9908C208.04 26.8582 207.834 26.7571 207.602 26.6875C207.373 26.6179 207.12 26.5831 206.841 26.5831C206.321 26.5831 205.864 26.7124 205.469 26.9709C205.078 27.2294 204.773 27.6056 204.555 28.0994C204.336 28.59 204.226 29.1899 204.226 29.8991C204.226 30.6084 204.334 31.2116 204.55 31.7088C204.765 32.206 205.07 32.5855 205.464 32.8473C205.859 33.1058 206.324 33.2351 206.861 33.2351C207.349 33.2351 207.765 33.1489 208.109 32.9766C208.457 32.8009 208.722 32.554 208.905 32.2358C209.09 31.9176 209.183 31.5414 209.183 31.1072L209.621 31.1719H206.996V29.5511H211.256V30.8338C211.256 31.7287 211.067 32.4976 210.689 33.1406C210.312 33.7803 209.791 34.2741 209.128 34.6222C208.465 34.9669 207.706 35.1392 206.851 35.1392C205.897 35.1392 205.058 34.9287 204.336 34.5078C203.613 34.0836 203.05 33.482 202.645 32.7031C202.244 31.9209 202.044 30.9929 202.044 29.919C202.044 29.0937 202.163 28.358 202.402 27.7116C202.644 27.062 202.982 26.5118 203.416 26.0611C203.85 25.6103 204.356 25.2673 204.932 25.032C205.509 24.7966 206.134 24.679 206.807 24.679C207.383 24.679 207.92 24.7635 208.417 24.9325C208.915 25.0982 209.355 25.3336 209.74 25.6385C210.128 25.9434 210.444 26.3063 210.689 26.7273C210.935 27.1449 211.092 27.6056 211.162 28.1094H208.974ZM212.873 35V24.8182H219.734V26.593H215.026V29.0192H219.381V30.794H215.026V33.2251H219.754V35H212.873ZM94.8849 41.8182H97.5398L100.344 48.6591H100.463L103.267 41.8182H105.922V52H103.834V45.3729H103.749L101.114 51.9503H99.6925L97.0575 45.348H96.973V52H94.8849V41.8182ZM113.985 41.8182H116.137V48.4304C116.137 49.1728 115.96 49.8224 115.605 50.3793C115.254 50.9361 114.762 51.3703 114.129 51.6818C113.496 51.9901 112.758 52.1442 111.916 52.1442C111.071 52.1442 110.332 51.9901 109.699 51.6818C109.066 51.3703 108.574 50.9361 108.222 50.3793C107.871 49.8224 107.695 49.1728 107.695 48.4304V41.8182H109.848V48.2464C109.848 48.6342 109.933 48.9789 110.102 49.2805C110.274 49.5821 110.516 49.8191 110.828 49.9915C111.139 50.1638 111.502 50.25 111.916 50.25C112.334 50.25 112.697 50.1638 113.005 49.9915C113.317 49.8191 113.557 49.5821 113.726 49.2805C113.898 48.9789 113.985 48.6342 113.985 48.2464V41.8182ZM123.432 44.7464C123.392 44.3454 123.221 44.0339 122.92 43.8118C122.618 43.5897 122.209 43.4787 121.692 43.4787C121.34 43.4787 121.044 43.5284 120.802 43.6278C120.56 43.724 120.374 43.8582 120.245 44.0305C120.119 44.2029 120.056 44.3984 120.056 44.6172C120.049 44.7995 120.088 44.9586 120.17 45.0945C120.257 45.2304 120.374 45.348 120.523 45.4474C120.673 45.5436 120.845 45.6281 121.04 45.701C121.236 45.7706 121.445 45.8303 121.667 45.88L122.582 46.0987C123.026 46.1982 123.433 46.3307 123.805 46.4964C124.176 46.6622 124.497 46.866 124.769 47.108C125.041 47.3499 125.251 47.6349 125.401 47.9631C125.553 48.2912 125.631 48.6674 125.634 49.0916C125.631 49.7147 125.472 50.255 125.157 50.7124C124.845 51.1664 124.395 51.5194 123.805 51.7713C123.218 52.0199 122.51 52.1442 121.682 52.1442C120.86 52.1442 120.144 52.0182 119.534 51.7663C118.928 51.5144 118.454 51.1416 118.112 50.6477C117.774 50.1506 117.597 49.5357 117.58 48.8033H119.663C119.687 49.1446 119.784 49.4297 119.957 49.6584C120.132 49.8838 120.366 50.0545 120.658 50.1705C120.953 50.2831 121.286 50.3395 121.657 50.3395C122.022 50.3395 122.338 50.2865 122.607 50.1804C122.878 50.0743 123.089 49.9268 123.238 49.7379C123.387 49.549 123.462 49.3319 123.462 49.0866C123.462 48.858 123.394 48.6657 123.258 48.5099C123.125 48.3542 122.93 48.2216 122.671 48.1122C122.416 48.0028 122.103 47.9034 121.732 47.8139L120.623 47.5355C119.764 47.3267 119.087 47.0002 118.589 46.5561C118.092 46.112 117.845 45.5137 117.849 44.7614C117.845 44.1449 118.009 43.6063 118.341 43.1456C118.676 42.6849 119.135 42.3253 119.718 42.0668C120.301 41.8082 120.964 41.679 121.707 41.679C122.462 41.679 123.122 41.8082 123.685 42.0668C124.252 42.3253 124.693 42.6849 125.008 43.1456C125.323 43.6063 125.485 44.1399 125.495 44.7464H123.432ZM127.082 52V41.8182H133.943V43.593H129.235V46.0192H133.59V47.794H129.235V50.2251H133.963V52H127.082ZM141.944 41.8182H144.096V48.4304C144.096 49.1728 143.919 49.8224 143.564 50.3793C143.213 50.9361 142.721 51.3703 142.088 51.6818C141.455 51.9901 140.717 52.1442 139.875 52.1442C139.03 52.1442 138.291 51.9901 137.658 51.6818C137.025 51.3703 136.533 50.9361 136.181 50.3793C135.83 49.8224 135.654 49.1728 135.654 48.4304V41.8182H137.807V48.2464C137.807 48.6342 137.892 48.9789 138.061 49.2805C138.233 49.5821 138.475 49.8191 138.787 49.9915C139.098 50.1638 139.461 50.25 139.875 50.25C140.293 50.25 140.656 50.1638 140.964 49.9915C141.276 49.8191 141.516 49.5821 141.685 49.2805C141.857 48.9789 141.944 48.6342 141.944 48.2464V41.8182ZM145.867 41.8182H148.522L151.326 48.6591H151.445L154.249 41.8182H156.904V52H154.816V45.3729H154.732L152.097 51.9503H150.675L148.04 45.348H147.955V52H145.867V41.8182Z" fill="#1E1E1E"/>
<defs>
<clipPath id="clip0_7_56">
<rect width="85" height="58" fill="white"/>
</clipPath>
</defs>
</svg>
